<svg enable-background="new 0 0 552.914 99.115" height="99.115" viewBox="0 0 552.914 99.115" width="552.914" xmlns="http://www.w3.org/2000/svg" xmlns:xlink="http://www.w3.org/1999/xlink"><clipPath id="a"><path d="m0 0h552.914v99.115h-552.914z"/></clipPath><path clip-path="url(#a)" d="m78.215 91.283h-59.45c-6.6 0-12-5.4-12-12v-59.45c0-6.6 5.4-12 12-12h59.45c6.6 0 12 5.4 12 12v59.451c0 6.599-5.4 11.999-12 11.999z" fill="none" stroke="#000" stroke-miterlimit="10" stroke-width="4"/><path clip-path="url(#a)" d="m54.758 49.558c0 3.462-2.806 6.269-6.268 6.269s-6.268-2.807-6.268-6.269 2.806-6.268 6.268-6.268 6.268 2.806 6.268 6.268" fill="#010202"/><circle clip-path="url(#a)" cx="48.49" cy="49.558" fill="none" r="6.268" stroke="#000" stroke-miterlimit="10" stroke-width="5"/><path clip-path="url(#a)" d="m33.769 26.352c0 3.462-2.806 6.268-6.268 6.268s-6.268-2.806-6.268-6.268 2.806-6.268 6.268-6.268 6.268 2.806 6.268 6.268" fill="#010202"/><circle clip-path="url(#a)" cx="27.5" cy="26.352" fill="none" r="6.268" stroke="#000" stroke-miterlimit="10" stroke-width="5"/><path clip-path="url(#a)" d="m33.769 72.764c0 3.462-2.806 6.269-6.268 6.269s-6.268-2.807-6.268-6.269 2.806-6.268 6.268-6.268 6.268 2.806 6.268 6.268" fill="#010202"/><circle clip-path="url(#a)" cx="27.5" cy="72.764" fill="none" r="6.268" stroke="#000" stroke-miterlimit="10" stroke-width="5"/><path clip-path="url(#a)" d="m76.525 72.764c0 3.462-2.806 6.269-6.268 6.269s-6.268-2.807-6.268-6.269 2.806-6.268 6.268-6.268 6.268 2.806 6.268 6.268" fill="#010202"/><circle clip-path="url(#a)" cx="70.257" cy="72.764" fill="none" r="6.268" stroke="#000" stroke-miterlimit="10" stroke-width="5"/><path clip-path="url(#a)" d="m76.525 26.352c0 3.462-2.806 6.268-6.268 6.268s-6.268-2.806-6.268-6.268 2.806-6.268 6.268-6.268 6.268 2.806 6.268 6.268" fill="#010202"/><circle clip-path="url(#a)" cx="70.257" cy="26.352" fill="none" r="6.268" stroke="#000" stroke-miterlimit="10" stroke-width="5"/><path clip-path="url(#a)" d="m442.963 91.283h-59.45c-6.601 0-12-5.4-12-12v-59.45c0-6.6 5.399-12 12-12h59.45c6.6 0 12 5.4 12 12v59.451c0 6.599-5.4 11.999-12 11.999z" fill="none" stroke="#000" stroke-miterlimit="10" stroke-width="4"/><path clip-path="url(#a)" d="m398.516 49.558c0 3.462-2.806 6.269-6.268 6.269s-6.268-2.807-6.268-6.269 2.806-6.268 6.268-6.268 6.268 2.806 6.268 6.268" fill="#010202"/><circle clip-path="url(#a)" cx="392.248" cy="49.558" fill="none" r="6.268" stroke="#000" stroke-miterlimit="10" stroke-width="5"/><path clip-path="url(#a)" d="m441.272 49.558c0 3.462-2.806 6.269-6.268 6.269s-6.269-2.807-6.269-6.269 2.807-6.268 6.269-6.268 6.268 2.806 6.268 6.268" fill="#010202"/><circle clip-path="url(#a)" cx="435.004" cy="49.558" fill="none" r="6.268" stroke="#000" stroke-miterlimit="10" stroke-width="5"/><path clip-path="url(#a)" d="m398.516 26.352c0 3.462-2.806 6.268-6.268 6.268s-6.268-2.806-6.268-6.268 2.806-6.268 6.268-6.268 6.268 2.806 6.268 6.268" fill="#010202"/><circle clip-path="url(#a)" cx="392.248" cy="26.352" fill="none" r="6.268" stroke="#000" stroke-miterlimit="10" stroke-width="5"/><path clip-path="url(#a)" d="m398.516 72.764c0 3.462-2.806 6.269-6.268 6.269s-6.268-2.807-6.268-6.269 2.806-6.268 6.268-6.268 6.268 2.806 6.268 6.268" fill="#010202"/><circle clip-path="url(#a)" cx="392.248" cy="72.764" fill="none" r="6.268" stroke="#000" stroke-miterlimit="10" stroke-width="5"/><path clip-path="url(#a)" d="m441.272 72.764c0 3.462-2.806 6.269-6.268 6.269s-6.269-2.807-6.269-6.269 2.807-6.268 6.269-6.268 6.268 2.806 6.268 6.268" fill="#010202"/><circle clip-path="url(#a)" cx="435.004" cy="72.764" fill="none" r="6.268" stroke="#000" stroke-miterlimit="10" stroke-width="5"/><path clip-path="url(#a)" d="m441.272 26.352c0 3.462-2.806 6.268-6.268 6.268s-6.269-2.806-6.269-6.268 2.807-6.268 6.269-6.268 6.268 2.806 6.268 6.268" fill="#010202"/><circle clip-path="url(#a)" cx="435.004" cy="26.352" fill="none" r="6.268" stroke="#000" stroke-miterlimit="10" stroke-width="5"/><path clip-path="url(#a)" d="m351.775 91.283h-59.45c-6.6 0-12-5.4-12-12v-59.45c0-6.6 5.4-12 12-12h59.45c6.6 0 12 5.4 12 12v59.451c0 6.599-5.4 11.999-12 11.999z" fill="none" stroke="#000" stroke-miterlimit="10" stroke-width="4"/><path clip-path="url(#a)" d="m307.329 49.558c0 3.462-2.806 6.269-6.268 6.269-3.463 0-6.269-2.807-6.269-6.269s2.806-6.268 6.269-6.268c3.462 0 6.268 2.806 6.268 6.268" fill="#010202"/><circle clip-path="url(#a)" cx="301.061" cy="49.558" fill="none" r="6.268" stroke="#000" stroke-miterlimit="10" stroke-width="5"/><path clip-path="url(#a)" d="m350.086 49.558c0 3.462-2.807 6.269-6.269 6.269s-6.268-2.807-6.268-6.269 2.806-6.268 6.268-6.268 6.269 2.806 6.269 6.268" fill="#010202"/><circle clip-path="url(#a)" cx="343.818" cy="49.558" fill="none" r="6.268" stroke="#000" stroke-miterlimit="10" stroke-width="5"/><path clip-path="url(#a)" d="m307.329 26.352c0 3.462-2.806 6.268-6.268 6.268-3.463 0-6.269-2.806-6.269-6.268s2.806-6.268 6.269-6.268c3.462-.001 6.268 2.806 6.268 6.268" fill="#010202"/><circle clip-path="url(#a)" cx="301.061" cy="26.352" fill="none" r="6.268" stroke="#000" stroke-miterlimit="10" stroke-width="5"/><path clip-path="url(#a)" d="m307.329 72.764c0 3.462-2.806 6.269-6.268 6.269-3.463 0-6.269-2.807-6.269-6.269s2.806-6.268 6.269-6.268c3.462 0 6.268 2.806 6.268 6.268" fill="#010202"/><circle clip-path="url(#a)" cx="301.061" cy="72.764" fill="none" r="6.268" stroke="#000" stroke-miterlimit="10" stroke-width="5"/><path clip-path="url(#a)" d="m350.086 72.764c0 3.462-2.807 6.269-6.269 6.269s-6.268-2.807-6.268-6.269 2.806-6.268 6.268-6.268 6.269 2.806 6.269 6.268" fill="#010202"/><circle clip-path="url(#a)" cx="343.818" cy="72.764" fill="none" r="6.268" stroke="#000" stroke-miterlimit="10" stroke-width="5"/><path clip-path="url(#a)" d="m350.086 26.352c0 3.462-2.807 6.268-6.269 6.268s-6.268-2.806-6.268-6.268 2.806-6.268 6.268-6.268 6.269 2.806 6.269 6.268" fill="#010202"/><circle clip-path="url(#a)" cx="343.818" cy="26.352" fill="none" r="6.268" stroke="#000" stroke-miterlimit="10" stroke-width="5"/><path clip-path="url(#a)" d="m169.402 91.283h-59.45c-6.6 0-12-5.4-12-12v-59.45c0-6.6 5.4-12 12-12h59.45c6.6 0 12 5.4 12 12v59.451c0 6.599-5.401 11.999-12 11.999z" fill="none" stroke="#000" stroke-miterlimit="10" stroke-width="4"/><path clip-path="url(#a)" d="m145.945 49.558c0 3.462-2.806 6.269-6.268 6.269s-6.268-2.807-6.268-6.269 2.806-6.268 6.268-6.268 6.268 2.806 6.268 6.268" fill="#010202"/><circle clip-path="url(#a)" cx="139.677" cy="49.558" fill="none" r="6.268" stroke="#000" stroke-miterlimit="10" stroke-width="5"/><path clip-path="url(#a)" d="m124.955 26.352c0 3.462-2.806 6.268-6.268 6.268s-6.268-2.806-6.268-6.268 2.806-6.268 6.268-6.268c3.462-.001 6.268 2.806 6.268 6.268" fill="#010202"/><circle clip-path="url(#a)" cx="118.687" cy="26.352" fill="none" r="6.268" stroke="#000" stroke-miterlimit="10" stroke-width="5"/><path clip-path="url(#a)" d="m124.955 72.764c0 3.462-2.806 6.269-6.268 6.269s-6.268-2.807-6.268-6.269 2.806-6.268 6.268-6.268 6.268 2.806 6.268 6.268" fill="#010202"/><circle clip-path="url(#a)" cx="118.687" cy="72.764" fill="none" r="6.268" stroke="#000" stroke-miterlimit="10" stroke-width="5"/><path clip-path="url(#a)" d="m167.712 72.764c0 3.462-2.806 6.269-6.268 6.269s-6.268-2.807-6.268-6.269 2.806-6.268 6.268-6.268 6.268 2.806 6.268 6.268" fill="#010202"/><circle clip-path="url(#a)" cx="161.444" cy="72.764" fill="none" r="6.268" stroke="#000" stroke-miterlimit="10" stroke-width="5"/><path clip-path="url(#a)" d="m167.712 26.352c0 3.462-2.806 6.268-6.268 6.268s-6.268-2.806-6.268-6.268 2.806-6.268 6.268-6.268 6.268 2.806 6.268 6.268" fill="#010202"/><circle clip-path="url(#a)" cx="161.444" cy="26.352" fill="none" r="6.268" stroke="#000" stroke-miterlimit="10" stroke-width="5"/><path clip-path="url(#a)" d="m260.588 91.283h-59.45c-6.6 0-12-5.4-12-12v-59.45c0-6.6 5.4-12 12-12h59.45c6.6 0 12 5.4 12 12v59.451c0 6.599-5.4 11.999-12 11.999z" fill="none" stroke="#000" stroke-miterlimit="10" stroke-width="4"/><path clip-path="url(#a)" d="m237.132 49.558c0 3.462-2.806 6.269-6.268 6.269s-6.268-2.807-6.268-6.269 2.806-6.268 6.268-6.268 6.268 2.806 6.268 6.268" fill="#010202"/><circle clip-path="url(#a)" cx="230.864" cy="49.558" fill="none" r="6.268" stroke="#000" stroke-miterlimit="10" stroke-width="5"/><path clip-path="url(#a)" d="m216.142 26.352c0 3.462-2.806 6.268-6.268 6.268s-6.268-2.806-6.268-6.268 2.806-6.268 6.268-6.268 6.268 2.806 6.268 6.268" fill="#010202"/><circle clip-path="url(#a)" cx="209.874" cy="26.352" fill="none" r="6.268" stroke="#000" stroke-miterlimit="10" stroke-width="5"/><path clip-path="url(#a)" d="m216.142 72.764c0 3.462-2.806 6.269-6.268 6.269s-6.268-2.807-6.268-6.269 2.806-6.268 6.268-6.268 6.268 2.806 6.268 6.268" fill="#010202"/><circle clip-path="url(#a)" cx="209.874" cy="72.764" fill="none" r="6.268" stroke="#000" stroke-miterlimit="10" stroke-width="5"/><path clip-path="url(#a)" d="m258.899 72.764c0 3.462-2.806 6.269-6.268 6.269s-6.268-2.807-6.268-6.269 2.806-6.268 6.268-6.268 6.268 2.806 6.268 6.268" fill="#010202"/><circle clip-path="url(#a)" cx="252.631" cy="72.764" fill="none" r="6.268" stroke="#000" stroke-miterlimit="10" stroke-width="5"/><path clip-path="url(#a)" d="m258.899 26.352c0 3.462-2.806 6.268-6.268 6.268s-6.268-2.806-6.268-6.268 2.806-6.268 6.268-6.268 6.268 2.806 6.268 6.268" fill="#010202"/><circle clip-path="url(#a)" cx="252.631" cy="26.352" fill="none" r="6.268" stroke="#000" stroke-miterlimit="10" stroke-width="5"/><path clip-path="url(#a)" d="m534.149 91.283h-59.45c-6.6 0-12-5.4-12-12v-59.45c0-6.6 5.4-12 12-12h59.45c6.6 0 12 5.4 12 12v59.451c0 6.599-5.4 11.999-12 11.999z" fill="none" stroke="#000" stroke-miterlimit="10" stroke-width="4"/><path clip-path="url(#a)" d="m489.703 49.558c0 3.462-2.807 6.269-6.269 6.269s-6.268-2.807-6.268-6.269 2.806-6.268 6.268-6.268 6.269 2.806 6.269 6.268" fill="#010202"/><circle clip-path="url(#a)" cx="483.435" cy="49.558" fill="none" r="6.268" stroke="#000" stroke-miterlimit="10" stroke-width="5"/><path clip-path="url(#a)" d="m532.459 49.558c0 3.462-2.806 6.269-6.268 6.269s-6.268-2.807-6.268-6.269 2.806-6.268 6.268-6.268 6.268 2.806 6.268 6.268" fill="#010202"/><circle clip-path="url(#a)" cx="526.191" cy="49.558" fill="none" r="6.268" stroke="#000" stroke-miterlimit="10" stroke-width="5"/><path clip-path="url(#a)" d="m489.703 26.352c0 3.462-2.807 6.268-6.269 6.268s-6.268-2.806-6.268-6.268 2.806-6.268 6.268-6.268 6.269 2.806 6.269 6.268" fill="#010202"/><circle clip-path="url(#a)" cx="483.435" cy="26.352" fill="none" r="6.268" stroke="#000" stroke-miterlimit="10" stroke-width="5"/><path clip-path="url(#a)" d="m489.703 72.764c0 3.462-2.807 6.269-6.269 6.269s-6.268-2.807-6.268-6.269 2.806-6.268 6.268-6.268 6.269 2.806 6.269 6.268" fill="#010202"/><circle clip-path="url(#a)" cx="483.435" cy="72.764" fill="none" r="6.268" stroke="#000" stroke-miterlimit="10" stroke-width="5"/><path clip-path="url(#a)" d="m532.459 72.764c0 3.462-2.806 6.269-6.268 6.269s-6.268-2.807-6.268-6.269 2.806-6.268 6.268-6.268 6.268 2.806 6.268 6.268" fill="#010202"/><circle clip-path="url(#a)" cx="526.191" cy="72.764" fill="none" r="6.268" stroke="#000" stroke-miterlimit="10" stroke-width="5"/><path clip-path="url(#a)" d="m532.459 26.352c0 3.462-2.806 6.268-6.268 6.268s-6.268-2.806-6.268-6.268 2.806-6.268 6.268-6.268 6.268 2.806 6.268 6.268" fill="#010202"/><circle clip-path="url(#a)" cx="526.191" cy="26.352" fill="none" r="6.268" stroke="#000" stroke-miterlimit="10" stroke-width="5"/></svg>