<svg enable-background="new 0 0 552.914 99.115" height="99.115" viewBox="0 0 552.914 99.115" width="552.914" xmlns="http://www.w3.org/2000/svg"><g clip-rule="evenodd" fill-rule="evenodd"><path d="m72.414 38.91c-.24 1.344-.4 3.817-1.139 6.104-2.729 8.443-8.453 11.16-16.448 11.662-3.498.219-3.504.093-4.511 3.525-.054.184-.089.375-.157.555-.551 1.473-.744 3.815-1.741 4.232-2.019.845-4.477.856-6.748.825-3.096-.042-5.263-1.524-6.056-4.756-.548-2.227-1.535-4.355-1.979-6.597-.705-3.55.611-6.399 3.596-8.492 3.885-2.724 8.407-3.639 12.906-4.63 1.372-.302 2.788-.437 4.128-.835.691-.206 1.737-.787 1.774-1.263.054-.709-.451-1.845-1.053-2.159-4.865-2.542-9.737-5.097-14.752-7.319-3.435-1.522-7.082-2.584-10.678-3.711-1.18-.37-1.691-.864-1.647-2.111.264-7.631 3.563-13.658 9.61-18.211 1.775-1.336 3.748-1.708 5.993-1.077 9.196 2.586 17.112 7.201 23.065 14.754 4.218 5.352 5.55 11.738 5.837 19.504z"/><path d="m45.466 73.144c1.781.319 4.112.477 6.271 1.17 7.051 2.267 9.692 10.532 5.422 16.573-5.977 8.454-18.983 8.268-24.712-.354-4.449-6.696-.39-15.548 7.727-16.804 1.576-.244 3.172-.355 5.292-.585z"/><path d="m164.414 38.844c-.24 1.344-.4 3.817-1.139 6.104-2.729 8.443-8.453 11.16-16.447 11.662-3.498.219-3.505.094-4.512 3.525-.054.184-.09.375-.156.555-.552 1.473-.744 3.816-1.741 4.232-2.019.846-4.477.857-6.747.826-3.097-.043-5.264-1.525-6.057-4.756-.547-2.227-1.535-4.355-1.979-6.598-.705-3.549.611-6.398 3.596-8.491 3.885-2.724 8.407-3.639 12.906-4.63 1.371-.302 2.787-.437 4.128-.835.691-.206 1.737-.787 1.774-1.263.053-.709-.451-1.845-1.053-2.159-4.865-2.542-9.738-5.097-14.752-7.319-3.436-1.522-7.082-2.584-10.679-3.711-1.18-.37-1.69-.864-1.647-2.111.264-7.631 3.563-13.658 9.609-18.211 1.775-1.336 3.748-1.708 5.993-1.077 9.196 2.586 17.112 7.201 23.065 14.754 4.219 5.351 5.551 11.737 5.838 19.503z"/><path d="m137.466 73.078c1.781.318 4.112.477 6.271 1.17 7.051 2.266 9.692 10.531 5.423 16.572-5.977 8.455-18.984 8.268-24.713-.354-4.449-6.697-.389-15.549 7.727-16.805 1.576-.241 3.172-.352 5.292-.583z"/><path d="m255.414 38.911c-.24 1.344-.4 3.817-1.139 6.104-2.729 8.443-8.453 11.16-16.447 11.662-3.498.219-3.505.094-4.512 3.525-.054.184-.09.375-.156.555-.552 1.473-.744 3.816-1.741 4.232-2.019.846-4.477.857-6.747.826-3.097-.043-5.264-1.525-6.057-4.756-.547-2.227-1.535-4.355-1.979-6.598-.705-3.549.611-6.398 3.596-8.491 3.885-2.724 8.407-3.639 12.906-4.63 1.371-.302 2.787-.437 4.128-.835.691-.206 1.737-.787 1.774-1.263.053-.709-.451-1.845-1.053-2.159-4.865-2.542-9.738-5.097-14.752-7.319-3.436-1.522-7.082-2.584-10.679-3.711-1.18-.37-1.69-.864-1.647-2.111.264-7.631 3.563-13.658 9.609-18.211 1.775-1.336 3.748-1.708 5.993-1.077 9.196 2.586 17.112 7.201 23.065 14.754 4.219 5.351 5.551 11.736 5.838 19.503z"/><path d="m228.466 73.145c1.781.318 4.112.477 6.271 1.17 7.051 2.266 9.692 10.531 5.423 16.572-5.977 8.455-18.984 8.268-24.713-.354-4.449-6.697-.389-15.549 7.727-16.805 1.576-.242 3.172-.353 5.292-.583z"/><path d="m346.414 38.911c-.24 1.344-.4 3.817-1.139 6.104-2.729 8.443-8.453 11.16-16.447 11.662-3.498.219-3.505.094-4.512 3.525-.054.184-.09.375-.156.555-.552 1.473-.744 3.816-1.741 4.232-2.019.846-4.477.857-6.747.826-3.097-.043-5.264-1.525-6.057-4.756-.547-2.227-1.535-4.355-1.979-6.598-.705-3.549.611-6.398 3.596-8.491 3.885-2.724 8.407-3.639 12.906-4.63 1.371-.302 2.787-.437 4.128-.835.691-.206 1.737-.787 1.774-1.263.053-.709-.451-1.845-1.053-2.159-4.865-2.542-9.738-5.097-14.752-7.319-3.436-1.522-7.082-2.584-10.679-3.711-1.18-.37-1.69-.864-1.647-2.111.264-7.631 3.563-13.658 9.609-18.211 1.775-1.336 3.748-1.708 5.993-1.077 9.196 2.586 17.112 7.201 23.065 14.754 4.219 5.351 5.551 11.736 5.838 19.503z"/><path d="m319.466 73.145c1.781.318 4.112.477 6.271 1.17 7.051 2.266 9.692 10.531 5.423 16.572-5.977 8.455-18.984 8.268-24.713-.354-4.449-6.697-.389-15.549 7.727-16.805 1.576-.242 3.172-.353 5.292-.583z"/><path d="m437.414 38.911c-.24 1.344-.4 3.817-1.139 6.104-2.729 8.443-8.453 11.16-16.447 11.662-3.498.219-3.505.094-4.512 3.525-.054.184-.09.375-.156.555-.552 1.473-.744 3.816-1.741 4.232-2.019.846-4.477.857-6.747.826-3.097-.043-5.264-1.525-6.057-4.756-.547-2.227-1.535-4.355-1.979-6.598-.705-3.549.611-6.398 3.596-8.491 3.885-2.724 8.407-3.639 12.906-4.63 1.371-.302 2.787-.437 4.128-.835.691-.206 1.737-.787 1.774-1.263.053-.709-.451-1.845-1.053-2.159-4.865-2.542-9.738-5.097-14.752-7.319-3.436-1.522-7.082-2.584-10.679-3.711-1.18-.37-1.69-.864-1.647-2.111.264-7.631 3.563-13.658 9.609-18.211 1.775-1.336 3.748-1.708 5.993-1.077 9.196 2.586 17.112 7.201 23.065 14.754 4.219 5.351 5.551 11.736 5.838 19.503z"/><path d="m410.466 73.145c1.781.318 4.112.477 6.271 1.17 7.051 2.266 9.692 10.531 5.423 16.572-5.977 8.455-18.984 8.268-24.713-.354-4.449-6.697-.389-15.549 7.727-16.805 1.576-.242 3.172-.353 5.292-.583z"/><path d="m529.414 38.844c-.24 1.344-.4 3.817-1.139 6.104-2.729 8.443-8.453 11.16-16.447 11.662-3.498.219-3.505.094-4.512 3.525-.054.184-.09.375-.156.555-.552 1.473-.744 3.816-1.741 4.232-2.019.846-4.477.857-6.747.826-3.097-.043-5.264-1.525-6.057-4.756-.547-2.227-1.535-4.355-1.979-6.598-.705-3.549.611-6.398 3.596-8.491 3.885-2.724 8.407-3.639 12.906-4.63 1.371-.302 2.787-.437 4.128-.835.691-.206 1.737-.787 1.774-1.263.053-.709-.451-1.845-1.053-2.159-4.865-2.542-9.738-5.097-14.752-7.319-3.436-1.522-7.082-2.584-10.679-3.711-1.18-.37-1.69-.864-1.647-2.111.264-7.631 3.563-13.658 9.609-18.211 1.775-1.336 3.748-1.708 5.993-1.077 9.196 2.586 17.112 7.201 23.065 14.754 4.219 5.351 5.551 11.737 5.838 19.503z"/><path d="m502.466 73.078c1.781.318 4.112.477 6.271 1.17 7.051 2.266 9.692 10.531 5.423 16.572-5.977 8.455-18.984 8.268-24.713-.354-4.449-6.697-.389-15.549 7.727-16.805 1.576-.241 3.172-.352 5.292-.583z"/></g></svg>