<?xml version="1.0" encoding="utf-8"?>
<!-- Generator: Adobe Illustrator 16.0.0, SVG Export Plug-In . SVG Version: 6.00 Build 0)  -->
<!DOCTYPE svg PUBLIC "-//W3C//DTD SVG 1.1//EN" "http://www.w3.org/Graphics/SVG/1.1/DTD/svg11.dtd">
<svg version="1.1" id="Layer_1" xmlns="http://www.w3.org/2000/svg" xmlns:xlink="http://www.w3.org/1999/xlink" x="0px" y="0px"
	 width="552.914px" height="99.115px" viewBox="0 0 552.914 99.115" enable-background="new 0 0 552.914 99.115"
	 xml:space="preserve">
<g>
	<defs>
		<rect id="SVGID_1_" width="552.914" height="99.115"/>
	</defs>
	<clipPath id="SVGID_2_">
		<use xlink:href="#SVGID_1_"  overflow="visible"/>
	</clipPath>
	<path display="none" clip-path="url(#SVGID_2_)" fill="#FFFFFF" d="M78.215,91.283h-59.45c-6.6,0-12-5.4-12-12V19.833
		c0-6.6,5.4-12,12-12h59.45c6.6,0,12,5.4,12,12v59.451C90.215,85.883,84.815,91.283,78.215,91.283"/>
	<path clip-path="url(#SVGID_2_)" fill="none" stroke="#000000" stroke-width="4" stroke-miterlimit="10" d="M78.215,91.283h-59.45
		c-6.6,0-12-5.4-12-12V19.833c0-6.6,5.4-12,12-12h59.45c6.6,0,12,5.4,12,12v59.451C90.215,85.883,84.815,91.283,78.215,91.283z"/>
	<path clip-path="url(#SVGID_2_)" fill="#010202" d="M54.758,49.558c0,3.462-2.806,6.269-6.268,6.269s-6.268-2.807-6.268-6.269
		s2.806-6.268,6.268-6.268S54.758,46.096,54.758,49.558"/>
	
		<circle clip-path="url(#SVGID_2_)" fill="none" stroke="#000000" stroke-width="5" stroke-miterlimit="10" cx="48.49" cy="49.558" r="6.268"/>
	<path clip-path="url(#SVGID_2_)" fill="#010202" d="M33.769,26.352c0,3.462-2.806,6.268-6.268,6.268s-6.268-2.806-6.268-6.268
		s2.806-6.268,6.268-6.268S33.769,22.89,33.769,26.352"/>
	
		<circle clip-path="url(#SVGID_2_)" fill="none" stroke="#000000" stroke-width="5" stroke-miterlimit="10" cx="27.5" cy="26.352" r="6.268"/>
	<path clip-path="url(#SVGID_2_)" fill="#010202" d="M33.769,72.764c0,3.462-2.806,6.269-6.268,6.269s-6.268-2.807-6.268-6.269
		s2.806-6.268,6.268-6.268S33.769,69.302,33.769,72.764"/>
	
		<circle clip-path="url(#SVGID_2_)" fill="none" stroke="#000000" stroke-width="5" stroke-miterlimit="10" cx="27.5" cy="72.764" r="6.268"/>
	<path clip-path="url(#SVGID_2_)" fill="#010202" d="M76.525,72.764c0,3.462-2.806,6.269-6.268,6.269s-6.268-2.807-6.268-6.269
		s2.806-6.268,6.268-6.268S76.525,69.302,76.525,72.764"/>
	
		<circle clip-path="url(#SVGID_2_)" fill="none" stroke="#000000" stroke-width="5" stroke-miterlimit="10" cx="70.257" cy="72.764" r="6.268"/>
	<path clip-path="url(#SVGID_2_)" fill="#010202" d="M76.525,26.352c0,3.462-2.806,6.268-6.268,6.268s-6.268-2.806-6.268-6.268
		s2.806-6.268,6.268-6.268S76.525,22.89,76.525,26.352"/>
	
		<circle clip-path="url(#SVGID_2_)" fill="none" stroke="#000000" stroke-width="5" stroke-miterlimit="10" cx="70.257" cy="26.352" r="6.268"/>
	<path clip-path="url(#SVGID_2_)" fill="none" stroke="#000000" stroke-width="4" stroke-miterlimit="10" d="M442.963,91.283h-59.45
		c-6.601,0-12-5.4-12-12V19.833c0-6.6,5.399-12,12-12h59.45c6.6,0,12,5.4,12,12v59.451
		C454.963,85.883,449.563,91.283,442.963,91.283z"/>
	<path clip-path="url(#SVGID_2_)" fill="#010202" d="M398.516,49.558c0,3.462-2.806,6.269-6.268,6.269s-6.268-2.807-6.268-6.269
		s2.806-6.268,6.268-6.268S398.516,46.096,398.516,49.558"/>
	
		<circle clip-path="url(#SVGID_2_)" fill="none" stroke="#000000" stroke-width="5" stroke-miterlimit="10" cx="392.248" cy="49.558" r="6.268"/>
	<path clip-path="url(#SVGID_2_)" fill="#010202" d="M441.272,49.558c0,3.462-2.806,6.269-6.268,6.269s-6.269-2.807-6.269-6.269
		s2.807-6.268,6.269-6.268S441.272,46.096,441.272,49.558"/>
	
		<circle clip-path="url(#SVGID_2_)" fill="none" stroke="#000000" stroke-width="5" stroke-miterlimit="10" cx="435.004" cy="49.558" r="6.268"/>
	<path clip-path="url(#SVGID_2_)" fill="#010202" d="M398.516,26.352c0,3.462-2.806,6.268-6.268,6.268s-6.268-2.806-6.268-6.268
		s2.806-6.268,6.268-6.268S398.516,22.89,398.516,26.352"/>
	
		<circle clip-path="url(#SVGID_2_)" fill="none" stroke="#000000" stroke-width="5" stroke-miterlimit="10" cx="392.248" cy="26.352" r="6.268"/>
	<path clip-path="url(#SVGID_2_)" fill="#010202" d="M398.516,72.764c0,3.462-2.806,6.269-6.268,6.269s-6.268-2.807-6.268-6.269
		s2.806-6.268,6.268-6.268S398.516,69.302,398.516,72.764"/>
	
		<circle clip-path="url(#SVGID_2_)" fill="none" stroke="#000000" stroke-width="5" stroke-miterlimit="10" cx="392.248" cy="72.764" r="6.268"/>
	<path clip-path="url(#SVGID_2_)" fill="#010202" d="M441.272,72.764c0,3.462-2.806,6.269-6.268,6.269s-6.269-2.807-6.269-6.269
		s2.807-6.268,6.269-6.268S441.272,69.302,441.272,72.764"/>
	
		<circle clip-path="url(#SVGID_2_)" fill="none" stroke="#000000" stroke-width="5" stroke-miterlimit="10" cx="435.004" cy="72.764" r="6.268"/>
	<path clip-path="url(#SVGID_2_)" fill="#010202" d="M441.272,26.352c0,3.462-2.806,6.268-6.268,6.268s-6.269-2.806-6.269-6.268
		s2.807-6.268,6.269-6.268S441.272,22.89,441.272,26.352"/>
	
		<circle clip-path="url(#SVGID_2_)" fill="none" stroke="#000000" stroke-width="5" stroke-miterlimit="10" cx="435.004" cy="26.352" r="6.268"/>
	<path clip-path="url(#SVGID_2_)" fill="none" stroke="#000000" stroke-width="4" stroke-miterlimit="10" d="M351.775,91.283h-59.45
		c-6.6,0-12-5.4-12-12V19.833c0-6.6,5.4-12,12-12h59.45c6.6,0,12,5.4,12,12v59.451C363.775,85.883,358.375,91.283,351.775,91.283z"
		/>
	<path clip-path="url(#SVGID_2_)" fill="#010202" d="M307.329,49.558c0,3.462-2.806,6.269-6.268,6.269
		c-3.463,0-6.269-2.807-6.269-6.269s2.806-6.268,6.269-6.268C304.523,43.29,307.329,46.096,307.329,49.558"/>
	
		<circle clip-path="url(#SVGID_2_)" fill="none" stroke="#000000" stroke-width="5" stroke-miterlimit="10" cx="301.061" cy="49.558" r="6.268"/>
	<path clip-path="url(#SVGID_2_)" fill="#010202" d="M350.086,49.558c0,3.462-2.807,6.269-6.269,6.269s-6.268-2.807-6.268-6.269
		s2.806-6.268,6.268-6.268S350.086,46.096,350.086,49.558"/>
	
		<circle clip-path="url(#SVGID_2_)" fill="none" stroke="#000000" stroke-width="5" stroke-miterlimit="10" cx="343.818" cy="49.558" r="6.268"/>
	<path clip-path="url(#SVGID_2_)" fill="#010202" d="M307.329,26.352c0,3.462-2.806,6.268-6.268,6.268
		c-3.463,0-6.269-2.806-6.269-6.268s2.806-6.268,6.269-6.268C304.523,20.083,307.329,22.89,307.329,26.352"/>
	
		<circle clip-path="url(#SVGID_2_)" fill="none" stroke="#000000" stroke-width="5" stroke-miterlimit="10" cx="301.061" cy="26.352" r="6.268"/>
	<path clip-path="url(#SVGID_2_)" fill="#010202" d="M307.329,72.764c0,3.462-2.806,6.269-6.268,6.269
		c-3.463,0-6.269-2.807-6.269-6.269s2.806-6.268,6.269-6.268C304.523,66.496,307.329,69.302,307.329,72.764"/>
	
		<circle clip-path="url(#SVGID_2_)" fill="none" stroke="#000000" stroke-width="5" stroke-miterlimit="10" cx="301.061" cy="72.764" r="6.268"/>
	<path clip-path="url(#SVGID_2_)" fill="#010202" d="M350.086,72.764c0,3.462-2.807,6.269-6.269,6.269s-6.268-2.807-6.268-6.269
		s2.806-6.268,6.268-6.268S350.086,69.302,350.086,72.764"/>
	
		<circle clip-path="url(#SVGID_2_)" fill="none" stroke="#000000" stroke-width="5" stroke-miterlimit="10" cx="343.818" cy="72.764" r="6.268"/>
	<path clip-path="url(#SVGID_2_)" fill="#010202" d="M350.086,26.352c0,3.462-2.807,6.268-6.269,6.268s-6.268-2.806-6.268-6.268
		s2.806-6.268,6.268-6.268S350.086,22.89,350.086,26.352"/>
	
		<circle clip-path="url(#SVGID_2_)" fill="none" stroke="#000000" stroke-width="5" stroke-miterlimit="10" cx="343.818" cy="26.352" r="6.268"/>
	<path clip-path="url(#SVGID_2_)" fill="none" stroke="#000000" stroke-width="4" stroke-miterlimit="10" d="M169.402,91.283h-59.45
		c-6.6,0-12-5.4-12-12V19.833c0-6.6,5.4-12,12-12h59.45c6.6,0,12,5.4,12,12v59.451C181.402,85.883,176.001,91.283,169.402,91.283z"
		/>
	<path clip-path="url(#SVGID_2_)" fill="#010202" d="M145.945,49.558c0,3.462-2.806,6.269-6.268,6.269s-6.268-2.807-6.268-6.269
		s2.806-6.268,6.268-6.268S145.945,46.096,145.945,49.558"/>
	
		<circle clip-path="url(#SVGID_2_)" fill="none" stroke="#000000" stroke-width="5" stroke-miterlimit="10" cx="139.677" cy="49.558" r="6.268"/>
	<path clip-path="url(#SVGID_2_)" fill="#010202" d="M124.955,26.352c0,3.462-2.806,6.268-6.268,6.268
		c-3.462,0-6.268-2.806-6.268-6.268s2.806-6.268,6.268-6.268C122.149,20.083,124.955,22.89,124.955,26.352"/>
	
		<circle clip-path="url(#SVGID_2_)" fill="none" stroke="#000000" stroke-width="5" stroke-miterlimit="10" cx="118.687" cy="26.352" r="6.268"/>
	<path clip-path="url(#SVGID_2_)" fill="#010202" d="M124.955,72.764c0,3.462-2.806,6.269-6.268,6.269
		c-3.462,0-6.268-2.807-6.268-6.269s2.806-6.268,6.268-6.268C122.149,66.496,124.955,69.302,124.955,72.764"/>
	
		<circle clip-path="url(#SVGID_2_)" fill="none" stroke="#000000" stroke-width="5" stroke-miterlimit="10" cx="118.687" cy="72.764" r="6.268"/>
	<path clip-path="url(#SVGID_2_)" fill="#010202" d="M167.712,72.764c0,3.462-2.806,6.269-6.268,6.269s-6.268-2.807-6.268-6.269
		s2.806-6.268,6.268-6.268S167.712,69.302,167.712,72.764"/>
	
		<circle clip-path="url(#SVGID_2_)" fill="none" stroke="#000000" stroke-width="5" stroke-miterlimit="10" cx="161.444" cy="72.764" r="6.268"/>
	<path clip-path="url(#SVGID_2_)" fill="#010202" d="M167.712,26.352c0,3.462-2.806,6.268-6.268,6.268s-6.268-2.806-6.268-6.268
		s2.806-6.268,6.268-6.268S167.712,22.89,167.712,26.352"/>
	
		<circle clip-path="url(#SVGID_2_)" fill="none" stroke="#000000" stroke-width="5" stroke-miterlimit="10" cx="161.444" cy="26.352" r="6.268"/>
	<path clip-path="url(#SVGID_2_)" fill="none" stroke="#000000" stroke-width="4" stroke-miterlimit="10" d="M260.588,91.283h-59.45
		c-6.6,0-12-5.4-12-12V19.833c0-6.6,5.4-12,12-12h59.45c6.6,0,12,5.4,12,12v59.451C272.588,85.883,267.188,91.283,260.588,91.283z"
		/>
	<path clip-path="url(#SVGID_2_)" fill="#010202" d="M237.132,49.558c0,3.462-2.806,6.269-6.268,6.269s-6.268-2.807-6.268-6.269
		s2.806-6.268,6.268-6.268S237.132,46.096,237.132,49.558"/>
	
		<circle clip-path="url(#SVGID_2_)" fill="none" stroke="#000000" stroke-width="5" stroke-miterlimit="10" cx="230.864" cy="49.558" r="6.268"/>
	<path clip-path="url(#SVGID_2_)" fill="#010202" d="M216.142,26.352c0,3.462-2.806,6.268-6.268,6.268s-6.268-2.806-6.268-6.268
		s2.806-6.268,6.268-6.268S216.142,22.89,216.142,26.352"/>
	
		<circle clip-path="url(#SVGID_2_)" fill="none" stroke="#000000" stroke-width="5" stroke-miterlimit="10" cx="209.874" cy="26.352" r="6.268"/>
	<path clip-path="url(#SVGID_2_)" fill="#010202" d="M216.142,72.764c0,3.462-2.806,6.269-6.268,6.269s-6.268-2.807-6.268-6.269
		s2.806-6.268,6.268-6.268S216.142,69.302,216.142,72.764"/>
	
		<circle clip-path="url(#SVGID_2_)" fill="none" stroke="#000000" stroke-width="5" stroke-miterlimit="10" cx="209.874" cy="72.764" r="6.268"/>
	<path clip-path="url(#SVGID_2_)" fill="#010202" d="M258.899,72.764c0,3.462-2.806,6.269-6.268,6.269s-6.268-2.807-6.268-6.269
		s2.806-6.268,6.268-6.268S258.899,69.302,258.899,72.764"/>
	
		<circle clip-path="url(#SVGID_2_)" fill="none" stroke="#000000" stroke-width="5" stroke-miterlimit="10" cx="252.631" cy="72.764" r="6.268"/>
	<path clip-path="url(#SVGID_2_)" fill="#010202" d="M258.899,26.352c0,3.462-2.806,6.268-6.268,6.268s-6.268-2.806-6.268-6.268
		s2.806-6.268,6.268-6.268S258.899,22.89,258.899,26.352"/>
	
		<circle clip-path="url(#SVGID_2_)" fill="none" stroke="#000000" stroke-width="5" stroke-miterlimit="10" cx="252.631" cy="26.352" r="6.268"/>
</g>
</svg>
